# xmcd CD database file
#
# Track frame offsets:
#	150
#	22880
#	51124
#	65232
#	93787
#	106373
#	126703
#	142477
#	157642
#	169111
#	186544
#	209116
#	229076
#	243383
#	258957
#	273739
#	297349
#
# Disc length: 4328 seconds
#
# Revision: 0
# Processed by: cddbd v1.5.1PL2 Copyright (c) Steve Scherf et al.
# Submitted via: CDex 1.51
#
DISCID=0d10e611
DTITLE=Various Artist - When I take you out to The Surrey
DYEAR=2004
DGENRE=Jazz
TTITLE0=Cry No More - Doug deVries and Diana Clark
TTITLE1=Pygmy Lullaby - Tony Gould and Emma Gilmartin
TTITLE2=Unity - Coco's Lunch
TTITLE3=Going Away - Estuary Three
TTITLE4=Wade in the Water - Urban Spirit
TTITLE5=Walk with Me - Living out Loud
TTITLE6=Lord Listen to Your Children Praying - Free Spirit
TTITLE7=Una limosna por el amor de Dios - Owen Thomson
TTITLE8=Four Seasons in one Day - BOPeRA
TTITLE9=Already Been to the Water - Heart 'n Soul
TTITLE10=Midnight in Moscow - Stiletto Sisters
TTITLE11=Mardi Gras Mambo - New Orleans Pelicans
TTITLE12=Hora Martisor - Vardos
TTITLE13=Cage Au Lait - Belle Musette
TTITLE14=Zombie Jamboree - Cabernet
TTITLE15=Afternoon of a Damselfly - Invention in Time
TTITLE16=Making Wings - Judy Jacques
EXTD=YEAR: 2004
EXTT0=
EXTT1=
EXTT2=
EXTT3=
EXTT4=
EXTT5=
EXTT6=
EXTT7=
EXTT8=
EXTT9=
EXTT10=
EXTT11=
EXTT12=
EXTT13=
EXTT14=
EXTT15=
EXTT16=
PLAYORDER=
